<svg xmlns="http://www.w3.org/2000/svg" viewBox="0 0 300 300" fill="none">
  <defs>
    <linearGradient id="grid-gradient" x1="0%" y1="0%" x2="0%" y2="100%">
      <stop offset="0%" style="stop-color:rgb(94, 234, 212);stop-opacity:1" />
      <stop offset="100%" style="stop-color:rgb(34, 211, 238);stop-opacity:1" />
    </linearGradient>
  </defs>
  
  <!-- Grid pattern -->
  <g fill="url(#grid-gradient)">
    <!-- Top rows -->
    <rect x="65" y="30" width="40" height="35" />
    <rect x="110" y="30" width="40" height="35" />
    <rect x="155" y="30" width="40" height="35" />
    <rect x="200" y="30" width="40" height="35" />
    
    <!-- Second row -->
    <rect x="65" y="70" width="40" height="35" />
    <rect x="110" y="70" width="40" height="35" />
    <rect x="155" y="70" width="40" height="35" />
    <rect x="200" y="70" width="40" height="35" />
    
    <!-- Third row -->
    <rect x="65" y="110" width="40" height="35" />
    <rect x="110" y="110" width="40" height="35" />
    <rect x="155" y="110" width="40" height="35" />
    <rect x="200" y="110" width="40" height="35" />
    
    <!-- Fourth row -->
    <rect x="65" y="150" width="40" height="35" />
    <rect x="110" y="150" width="40" height="35" />
    <rect x="155" y="150" width="40" height="35" />
    <rect x="200" y="150" width="40" height="35" />
    
    <!-- Fifth row -->
    <rect x="65" y="190" width="40" height="35" />
    <rect x="110" y="190" width="40" height="35" />
    <rect x="155" y="190" width="40" height="35" />
    <rect x="200" y="190" width="40" height="35" />
    
    <!-- Bottom row -->
    <rect x="65" y="230" width="40" height="35" />
    <rect x="110" y="230" width="40" height="35" />
    <rect x="155" y="230" width="40" height="35" />
    <rect x="200" y="230" width="40" height="35" />
  </g>
  
  <!-- Circular overlay -->
  <circle cx="150" cy="150" r="120" fill="none" stroke="url(#grid-gradient)" stroke-width="3" opacity="0.3"/>
  
  <!-- Arrow going up -->
  <path d="M 100 200 L 150 80 L 200 120 L 170 120 L 170 200 L 130 200 L 130 120 Z" 
        fill="#1e293b" opacity="0.9"/>
  
  <!-- Bar chart -->
  <g fill="#1e293b" opacity="0.9">
    <rect x="210" y="180" width="25" height="60" />
    <rect x="240" y="150" width="25" height="90" />
    <rect x="210" y="120" width="25" height="50" />
  </g>
  
  <!-- Flag on top -->
  <path d="M 240 60 L 240 100 L 285 85 Z" fill="url(#grid-gradient)"/>
  <line x1="240" y1="60" x2="240" y2="100" stroke="url(#grid-gradient)" stroke-width="3"/>
</svg>

