<svg xmlns="http://www.w3.org/2000/svg" width="1200" height="630" viewBox="0 0 1200 630">
  <defs>
    <linearGradient id="bg-gradient" x1="0%" y1="0%" x2="100%" y2="100%">
      <stop offset="0%" style="stop-color:#2563eb;stop-opacity:1" />
      <stop offset="100%" style="stop-color:#4f46e5;stop-opacity:1" />
    </linearGradient>
  </defs>
  
  <!-- Background -->
  <rect width="1200" height="630" fill="url(#bg-gradient)"/>
  
  <!-- Grid pattern overlay -->
  <g opacity="0.1">
    <path d="M 0 100 L 1200 100 M 0 200 L 1200 200 M 0 300 L 1200 300 M 0 400 L 1200 400 M 0 500 L 1200 500" 
          stroke="white" stroke-width="2"/>
    <path d="M 100 0 L 100 630 M 200 0 L 200 630 M 300 0 L 300 630 M 400 0 L 400 630 M 500 0 L 500 630 M 600 0 L 600 630 M 700 0 L 700 630 M 800 0 L 800 630 M 900 0 L 900 630 M 1000 0 L 1000 630 M 1100 0 L 1100 630" 
          stroke="white" stroke-width="2"/>
  </g>
  
  <!-- Logo -->
  <g transform="translate(100, 120)">
    <rect width="80" height="80" rx="8" fill="white" opacity="0.2"/>
    <text x="40" y="55" font-family="Arial, sans-serif" font-size="48" font-weight="bold" fill="white" text-anchor="middle">📊</text>
  </g>
  
  <!-- Title -->
  <text x="600" y="280" font-family="Arial, sans-serif" font-size="72" font-weight="bold" fill="white" text-anchor="middle">
    Market Open Time
  </text>
  
  <!-- Subtitle -->
  <text x="600" y="350" font-family="Arial, sans-serif" font-size="36" fill="white" text-anchor="middle" opacity="0.9">
    NYSE & NASDAQ Real-Time Market Hours
  </text>
  
  <!-- Features -->
  <g transform="translate(300, 420)">
    <text x="0" y="0" font-family="Arial, sans-serif" font-size="24" fill="white" opacity="0.8">
      ✓ Real-Time Market Status
    </text>
    <text x="0" y="40" font-family="Arial, sans-serif" font-size="24" fill="white" opacity="0.8">
      ✓ Holiday Schedules
    </text>
    <text x="0" y="80" font-family="Arial, sans-serif" font-size="24" fill="white" opacity="0.8">
      ✓ Timezone Conversion
    </text>
  </g>
  
  <!-- URL -->
  <text x="600" y="590" font-family="Arial, sans-serif" font-size="28" fill="white" text-anchor="middle" opacity="0.7">
    marketopentime.com
  </text>
</svg>


